<svg xmlns="http://www.w3.org/2000/svg" width="588.259" height="220.701" viewBox="0 0 588.259 220.701">
  <g id="Group_1" data-name="Group 1" transform="translate(-825.992 -626.61)">
    <g id="friends" transform="translate(814.62 627.01)">
      <path id="Path_3" data-name="Path 3" d="M60.107,224.635a7.254,7.254,0,0,0-8.01-10.617L48.47,201.009a6.461,6.461,0,0,0-7.949-4.481l-5.082,1.417a1.318,1.318,0,1,0,.708,2.539l5.082-1.417a3.822,3.822,0,0,1,4.7,2.651L50.2,217.034l-12.375,3.453a8.177,8.177,0,0,1-7.21-1.39,8.926,8.926,0,0,0-7.856-1.589l-4.722,1.316-1.537-5.51a3.82,3.82,0,0,1,2.65-4.7l1.047-.292a9.076,9.076,0,0,1,3.735-.171,1.318,1.318,0,0,0,1.54-1.644,2.935,2.935,0,0,1,2.037-3.612l2.947-.823a1.318,1.318,0,1,0-.708-2.539l-2.947.822a5.578,5.578,0,0,0-4.064,5.044,11.2,11.2,0,0,0-3.248.385l-1.047.291a6.461,6.461,0,0,0-4.482,7.95l2.751,9.865A7.251,7.251,0,0,0,20.6,237.851l.139.5a18.368,18.368,0,0,0,35.386-9.869l-.139-.5a7.2,7.2,0,0,0,4.116-3.347Zm-45.639,7.4a4.623,4.623,0,0,1,2.953-5.61L19.9,235.3a4.624,4.624,0,0,1-5.43-3.267Zm28.2,16.529A15.75,15.75,0,0,1,23.285,237.64l-4.539-16.274,4.722-1.317a6.3,6.3,0,0,1,5.549,1.146,10.8,10.8,0,0,0,6.57,2.238,10.958,10.958,0,0,0,2.948-.406l12.375-3.451,2.681,9.612a15.75,15.75,0,0,1-10.927,19.379ZM57.81,223.339a4.573,4.573,0,0,1-2.527,2.1l-2.477-8.879a4.617,4.617,0,0,1,5,6.78Z" transform="translate(0 -161.786)" fill="#79939e" stroke="#79939e" stroke-width="0.5"/>
      <path id="Path_4" data-name="Path 4" d="M150.763,397.227,139.025,400.5a1.308,1.308,0,0,0-.8.62,1.324,1.324,0,0,0-.121,1,7.412,7.412,0,1,0,14.279-3.981,1.317,1.317,0,0,0-1.62-.912Zm-1.356,5.251a4.776,4.776,0,0,1-8.228.156l8.845-2.468a4.778,4.778,0,0,1-.616,2.312Z" transform="translate(-104.18 -327.361)" fill="#79939e" stroke="#79939e" stroke-width="0.5"/>
      <path id="Path_5" data-name="Path 5" d="M109.594,377.273a3.748,3.748,0,1,0-7.22,2.013,1.318,1.318,0,1,0,2.539-.71,1.112,1.112,0,0,1,2.141-.6,1.318,1.318,0,1,0,2.539-.708Z" transform="translate(-74.654 -308.694)" fill="#79939e" stroke="#79939e" stroke-width="0.5"/>
      <path id="Path_6" data-name="Path 6" d="M192.833,350.166a3.755,3.755,0,0,0-2.6,4.619,1.319,1.319,0,1,0,2.54-.71,1.111,1.111,0,0,1,2.14-.6,1.318,1.318,0,0,0,2.54-.708,3.754,3.754,0,0,0-4.62-2.6Z" transform="translate(-147.066 -288.498)" fill="#79939e" stroke="#79939e" stroke-width="0.5"/>
      <path id="Path_7" data-name="Path 7" d="M269.166,56.706c-.1-.029-.207-.055-.31-.079A17.955,17.955,0,0,0,235.5,47.154c-.1-.034-.209-.067-.312-.1a7.108,7.108,0,1,0-4.164,13.593l-.13.454a17.958,17.958,0,0,0,21.388,22.381,1.319,1.319,0,0,0-.609-2.566,15.316,15.316,0,0,1-18.241-19.094l1.294-4.562a1.318,1.318,0,0,0-2.536-.72l-.446,1.567a4.472,4.472,0,0,1,2.558-8.559c-.171.415-.332.836-.472,1.267a1.318,1.318,0,0,0,2.507.815,15.316,15.316,0,0,1,3.617-5.985,17.928,17.928,0,0,0,24.937,7.933c.323-.18.642-.374.954-.574a15.234,15.234,0,0,1-.213,7.558L262.9,70.193a15.313,15.313,0,0,1-6.264,8.577,1.319,1.319,0,0,0,1.457,2.2,17.948,17.948,0,0,0,7.343-10.055l.132-.458a7.108,7.108,0,0,0,3.6-13.749Zm-5.559-5.429a15.209,15.209,0,0,1-11.643,1.358,15.392,15.392,0,0,1-9.923-8.771,15.342,15.342,0,0,1,22.236,5.056A16.225,16.225,0,0,1,265,50.4,15.446,15.446,0,0,1,263.607,51.277Zm7.919,13.49a4.472,4.472,0,0,1-5.24,3.151l1.883-6.634a18.628,18.628,0,0,0,.446-1.989,4.479,4.479,0,0,1,2.911,5.473Z" transform="translate(-176.772 -31.668)" fill="#79939e" stroke="#79939e" stroke-width="0.5"/>
      <path id="Path_8" data-name="Path 8" d="M304.987,196.819a7.259,7.259,0,0,0,8.973-5,1.321,1.321,0,0,0-.91-1.629l-11.437-3.248a1.319,1.319,0,0,0-1.628.907,7.265,7.265,0,0,0,5,8.971Zm5.893-4.507a4.628,4.628,0,0,1-8.534-2.424Z" transform="translate(-237.411 -154.038)" fill="#79939e" stroke="#79939e" stroke-width="0.5"/>
      <path id="Path_9" data-name="Path 9" d="M290.856,142.914a1.317,1.317,0,0,0,1.628-.907,3.69,3.69,0,1,0-7.1-2.016,1.319,1.319,0,0,0,2.538.721,1.051,1.051,0,1,1,2.021.575,1.32,1.32,0,0,0,.913,1.627Z" transform="translate(-225.568 -113.173)" fill="#79939e" stroke="#79939e" stroke-width="0.5"/>
      <path id="Path_10" data-name="Path 10" d="M376.456,167.225a1.316,1.316,0,0,0,1.628-.909,3.69,3.69,0,0,0-7.1-2.016,1.319,1.319,0,0,0,2.538.722,1.051,1.051,0,1,1,2.021.573,1.321,1.321,0,0,0,.913,1.63Z" transform="translate(-296.122 -133.209)" fill="#79939e" stroke="#79939e" stroke-width="0.5"/>
      <path id="Path_11" data-name="Path 11" d="M336.54,376.623l-10.23-1.494a2.821,2.821,0,0,0-3.107,2.006l-.6,2.081a2.818,2.818,0,0,0,1.571,3.349l9.463,4.162a2.81,2.81,0,0,0,3.832-1.8l1.365-4.748a2.814,2.814,0,0,0-2.3-3.557Zm-.237,2.83-1.367,4.748a.169.169,0,0,1-.235.11l-9.466-4.162a.169.169,0,0,1-.094-.207l.6-2.081a.171.171,0,0,1,.165-.127.043.043,0,0,1,.024,0l10.233,1.494a.166.166,0,0,1,.121.077.173.173,0,0,1,.016.149Z" transform="translate(-256.196 -309.164)" fill="#79939e" stroke="#79939e" stroke-width="0.5"/>
      <path id="Path_12" data-name="Path 12" d="M316.348,308.384l.149,2.162a2.821,2.821,0,0,0,2.624,2.608l10.316.675h.185a2.806,2.806,0,0,0,2.8-3l-.341-4.931a2.815,2.815,0,0,0-3.373-2.558l-10.127,2.1a2.817,2.817,0,0,0-2.233,2.944Zm2.769-.365,10.125-2.1h.04a.162.162,0,0,1,.1.035.166.166,0,0,1,.068.127l.343,4.926a.171.171,0,0,1-.051.138.176.176,0,0,1-.132.048l-10.321-.672a.177.177,0,0,1-.163-.163h0l-.149-2.162a.174.174,0,0,1,.139-.176Z" transform="translate(-251.123 -249.972)" fill="#79939e" stroke="#79939e" stroke-width="0.5"/>
      <path id="Path_13" data-name="Path 13" d="M299.871,428.722l-9.1-4.9a2.822,2.822,0,0,0-3.608.822l-1.274,1.753h0a2.82,2.82,0,0,0,.334,3.683l7.471,7.146a2.794,2.794,0,0,0,1.94.782,2.35,2.35,0,0,0,.25-.013,2.8,2.8,0,0,0,2.023-1.143l2.907-4a2.811,2.811,0,0,0-.943-4.126ZM298.68,431.3l-2.907,4a.169.169,0,0,1-.123.07.18.18,0,0,1-.138-.048l-7.471-7.15a.176.176,0,0,1-.018-.229l1.274-1.749a.174.174,0,0,1,.222-.053l9.1,4.9a.166.166,0,0,1,.088.114A.174.174,0,0,1,298.68,431.3Z" transform="translate(-225.584 -349.041)" fill="#79939e" stroke="#79939e" stroke-width="0.5"/>
      <path id="Path_14" data-name="Path 14" d="M92.544,54.708l9.43,4.242a2.784,2.784,0,0,0,1.145.245,2.822,2.822,0,0,0,2.393-1.322l1.146-1.839h0a2.821,2.821,0,0,0-.592-3.651l-7.963-6.6a2.81,2.81,0,0,0-4.178.678l-2.613,4.193a2.81,2.81,0,0,0,1.232,4.05Zm1-2.655,2.613-4.193a.165.165,0,0,1,.12-.08h.03a.166.166,0,0,1,.109.041l7.962,6.6a.176.176,0,0,1,.037.226l-1.147,1.839a.174.174,0,0,1-.219.066L93.626,52.3a.175.175,0,0,1-.076-.25Z" transform="translate(-65.3 -37.207)" fill="#79939e" stroke="#79939e" stroke-width="0.5"/>
      <path id="Path_15" data-name="Path 15" d="M86.65,132.314l10.311.761c.069.005.137.007.206.007a2.821,2.821,0,0,0,2.751-2.229l.448-2.121A2.821,2.821,0,0,0,98.56,125.5l-9.738-3.474a2.81,2.81,0,0,0-3.694,2.067l-1.022,4.834a2.81,2.81,0,0,0,2.543,3.384Zm.036-2.839,1.022-4.834a.163.163,0,0,1,.085-.115.165.165,0,0,1,.083-.022.187.187,0,0,1,.06.01l9.738,3.474a.175.175,0,0,1,.112.2l-.448,2.12a.175.175,0,0,1-.183.137l-10.311-.76a.17.17,0,0,1-.126-.069.168.168,0,0,1-.032-.141Z" transform="translate(-59.661 -100.444)" fill="#79939e" stroke="#79939e" stroke-width="0.5"/>
      <path id="Path_16" data-name="Path 16" d="M159.412,15.082a2.819,2.819,0,0,0,3.692.2l1.705-1.336h0a2.82,2.82,0,0,0,.692-3.633L160.276,1.39A2.811,2.811,0,0,0,156.117.6l-3.889,3.047A2.812,2.812,0,0,0,152,7.871ZM153.854,5.72l3.889-3.047a.167.167,0,0,1,.1-.037.17.17,0,0,1,.035,0,.167.167,0,0,1,.118.083l5.226,8.921a.173.173,0,0,1-.043.225l-1.7,1.336a.174.174,0,0,1-.229-.012l-7.41-7.211a.169.169,0,0,1-.052-.134.163.163,0,0,1,.066-.124Z" transform="translate(-114.971)" fill="#79939e" stroke="#79939e" stroke-width="0.5"/>
    </g>
    <g id="traveling" transform="translate(951.709 625.509)">
      <path id="Path_17" data-name="Path 17" d="M90.53,52.753a38.827,38.827,0,0,0-19.786-33.8,38.186,38.186,0,0,0-15-4.738v-.024c.6-3.474.789-8.077-1.71-10.271-2.62-2.358-7.648-1.331-10.413-.51-3.106.925-6.052,3.239-8.523,6.7l-2.676,3.764-3.43-1.136,1.858-2.093A4.252,4.252,0,0,0,30.5,4.65L28.157,2.57a4.243,4.243,0,0,0-5.982.353L16.992,8.759,13.779,7.7A8,8,0,0,0,5.54,9.587l-2.08,2.34a3.767,3.767,0,0,0-1.155,3.218c.219,1.143,1.1,2.09,2.691,2.888l17.892,9.252-5.6,7.886-8.356-2.94a6.469,6.469,0,0,0-6.771,1.552L1.019,35.067a3.208,3.208,0,0,0-.974,2.761,3.824,3.824,0,0,0,2.2,2.437l7.815,5.108c-1.8,3.157-.927,6.019.771,7.476a4.921,4.921,0,0,0,2.295,1.088A38.588,38.588,0,0,0,15.959,67.3a1.336,1.336,0,0,0,2.475-1.007,35.937,35.937,0,0,1-2.64-12.554,7.376,7.376,0,0,0,2.195-1.2l6.191,7.232a3.813,3.813,0,0,0,2.669,1.9c.062,0,.124.007.186.007a3.3,3.3,0,0,0,2.445-1.3L30.621,59.1a6.46,6.46,0,0,0,.742-6.918l-4.019-8.09,7.147-6.48,4.357,6.449a1.337,1.337,0,0,0,2.214-1.5L36.492,35.8l8.12-7.362,2.03,4.346q.012.029.027.057L52.58,45.5A5.389,5.389,0,0,1,52.1,51l-2.082,2.342c-.456.515-.757.646-.865.632-.153-.011-.568-.266-1.162-1.167L44.3,47.351a1.337,1.337,0,0,0-2.214,1.5l3.677,5.439c.988,1.5,2.033,2.267,3.2,2.349.068,0,.136.007.2.007a3.864,3.864,0,0,0,2.849-1.532l2.08-2.339A8,8,0,0,0,55,44.361l-1.433-3.068,5.186-5.84a4.255,4.255,0,0,0-.355-5.988l-2.341-2.081a4.239,4.239,0,0,0-5.982.353l-1.86,2.093-1.53-3.276,3.424-3.1h0a18.913,18.913,0,0,0,4.865-6.625,35.56,35.56,0,0,1,9.065,1.986,6.033,6.033,0,0,0-1.628,3.351c-.376,3.062,1.908,5.774,4.115,8.4,3.035,3.606,4.3,5.518,2.812,7.476-3.508,4.61-4.719,8.256-3.6,10.837.553,1.275,1.934,2.868,5.373,3.217l.355.033c2.5.227,4.769.678,5.082,3.657.306,2.923,3.08,5.021,6.746,5.1h.2a8.362,8.362,0,0,0,3.613-.8,35.858,35.858,0,0,1-4.264,11A16.7,16.7,0,0,0,69.9,66.5a11.238,11.238,0,0,0-8.71,5.076,9.883,9.883,0,0,1-7.032,4.445c-3.815.656-7.479-.34-8.656-1.311-3.732-3.085-8.19-3.952-11.631-2.262-2.821,1.385-4.592,4.254-5.051,8.058a36.441,36.441,0,0,1-7.284-8.244A1.336,1.336,0,0,0,19.29,73.71,38.69,38.69,0,0,0,90.42,55.652h0a1.329,1.329,0,0,0,.013-.217q.091-1.332.093-2.679ZM52.073,29.511a1.566,1.566,0,0,1,2.206-.13l2.341,2.081a1.577,1.577,0,0,1,.132,2.218l-4.418,4.975-2.89-6.188ZM24.173,4.7a1.556,1.556,0,0,1,1.079-.52,1.533,1.533,0,0,1,1.129.389l2.344,2.083a1.579,1.579,0,0,1,.129,2.217l-2.621,2.954L19.754,9.674ZM6.211,15.653c-1.169-.588-1.273-.969-1.281-1.01-.02-.106.068-.423.528-.94L7.54,11.361a5.378,5.378,0,0,1,5.4-1.128l13.235,4.382.068.022L30.8,16.148l-6.353,8.937Zm-2.7,22.258a2.33,2.33,0,0,1-.832-.578,1.614,1.614,0,0,1,.334-.49l1.138-1.285a3.869,3.869,0,0,1,3.885-.806l7.633,2.686L11.591,43.18,3.646,37.987a1.325,1.325,0,0,0-.132-.076ZM28.969,53.367a3.861,3.861,0,0,1-.347,3.955L27.48,58.608a1.6,1.6,0,0,1-.445.386,2.334,2.334,0,0,1-.669-.759,1.34,1.34,0,0,0-.1-.136l-6.28-7.337,5.3-4.808Zm19.34-31.894-4.118,3.734-.067.061-27.6,25.02a4.338,4.338,0,0,1-2.2,1.039h-.045a2.219,2.219,0,0,1-1.714-.509c-.871-.748-1.249-2.336-.142-4.21L25.942,27.6l.029-.041,11.305-15.9C39.4,8.69,41.855,6.723,44.385,5.97c3.68-1.094,6.693-1.119,7.876-.054,1.18,1.036,1.507,4.031.852,7.82-.445,2.6-2.106,5.274-4.8,7.738ZM83.356,58.208c-1.924-.043-3.967-.987-4.147-2.709-.567-5.41-5.424-5.852-7.5-6.04l-.33-.031c-1.186-.12-2.7-.5-3.188-1.622-.677-1.559.516-4.531,3.274-8.154,2.948-3.875-.291-7.723-2.894-10.815-1.839-2.185-3.741-4.445-3.507-6.35a4.166,4.166,0,0,1,1.678-2.573q1.367.625,2.693,1.369a36.151,36.151,0,0,1,18.423,31.47q0,1.312-.1,2.6C87.374,57.522,85.16,58.25,83.356,58.208ZM51.82,88.829a35.809,35.809,0,0,1-20.442-6.381c.024-3.705,1.345-6.457,3.676-7.6,2.486-1.221,5.839-.484,8.751,1.923,2.141,1.766,6.788,2.575,10.81,1.884a12.473,12.473,0,0,0,8.87-5.7,8.723,8.723,0,0,1,6.693-3.793,14.16,14.16,0,0,1,11.195,4.215A36.01,36.01,0,0,1,51.82,88.829Z" fill="#79939e" stroke="#79939e" stroke-width="0.6"/>
      <path id="Path_18" data-name="Path 18" d="M242.567,43.478a1.336,1.336,0,1,0,.224,2.663c1.34-.109,3.116,1.521,3.281,3.013a1.335,1.335,0,1,0,2.654-.29C248.4,45.912,245.353,43.242,242.567,43.478Z" transform="translate(-198.669 -34.542)" fill="#79939e" stroke="#79939e" stroke-width="0.6"/>
    </g>
    <g id="books" transform="translate(1182.948 627.01)">
      <path id="Path_22" data-name="Path 22" d="M233.372,233.582a1.318,1.318,0,1,0-2.382-1.13,3.418,3.418,0,0,1-6.176,0,1.318,1.318,0,1,0-2.382,1.13,6.055,6.055,0,0,0,10.941,0Z" transform="translate(-160.88 -190.97)" fill="#79939e" stroke="#79939e" stroke-width="0.6"/>
      <ellipse id="Ellipse_13" data-name="Ellipse 13" cx="1.904" cy="2.834" rx="1.904" ry="2.834" transform="translate(55.379 31.514)" fill="#79939e" stroke="#79939e" stroke-width="0.6"/>
      <ellipse id="Ellipse_14" data-name="Ellipse 14" cx="1.904" cy="2.834" rx="1.904" ry="2.834" transform="translate(74.856 31.514)" fill="#79939e" stroke="#79939e" stroke-width="0.6"/>
      <path id="Path_23" data-name="Path 23" d="M336.5,313.618a1.318,1.318,0,0,0-1.568-1.009l-14.6,3.164a1.318,1.318,0,1,0,.558,2.577l14.6-3.164a1.318,1.318,0,0,0,1.01-1.568Z" transform="translate(-240.825 -257.633)" fill="#79939e" stroke="#79939e" stroke-width="0.6"/>
      <path id="Path_24" data-name="Path 24" d="M334.936,340.479l-14.6,3.164a1.318,1.318,0,0,0,.558,2.577l14.6-3.164a1.318,1.318,0,1,0-.558-2.577Z" transform="translate(-240.825 -280.604)" fill="#79939e" stroke="#79939e" stroke-width="0.6"/>
      <path id="Path_25" data-name="Path 25" d="M102.566,51.627h-.789V49.3a5.359,5.359,0,0,0-6.5-5.236L88.41,45.553a13.08,13.08,0,0,0,.8-3.867q.067-1.3.108-2.61a5.893,5.893,0,0,0-.09-11.533q-.238-4.954-.819-9.883c3.083-3.293,5.508-6.96,6.269-9.66a4.474,4.474,0,0,0-.409-4.068,3.38,3.38,0,0,0-2.744-1.4,6.958,6.958,0,0,0-4.2,1.844,4.689,4.689,0,0,0-.594-2.787A3.556,3.556,0,0,0,83.489,0a7.842,7.842,0,0,0-5.816,2.982,4.342,4.342,0,0,0-.747-1.723A3.2,3.2,0,0,0,74.278,0c-2.137,0-3.822,1.772-5.5,3.92a25.5,25.5,0,0,0-2.831-1.373c-.523-.213-1.063-.41-1.608-.588a15.2,15.2,0,0,0-5.4-.8H58.88c-.244.014-.481.036-.727.066A9.011,9.011,0,0,0,51.47,5.509c-2.861-1-7.477-1.363-9.993,2.714a1.318,1.318,0,0,0,2.244,1.384c2.351-3.811,7.515-1.361,7.73-1.256A1.318,1.318,0,0,0,53.2,7.773a6.657,6.657,0,0,1,5.278-3.932c.18-.023.355-.038.534-.049l.084-.005a12.605,12.605,0,0,1,4.429.682c.48.156.959.332,1.422.52a22.862,22.862,0,0,1,2.214,1.053c-1.383,1.809-2.809,3.513-4.293,4.061a1.319,1.319,0,0,0,.913,2.474c2.435-.9,4.3-3.378,6.112-5.776,1.472-1.952,3.14-4.164,4.38-4.164.354,0,.469.112.549.218.65.853.335,3.491-.082,5a1.318,1.318,0,0,0,2.5.819c.023-.06,2.392-6.041,6.24-6.041.785,0,.954.268,1.009.356.611.97-.224,3.762-.981,5.342a1.318,1.318,0,0,0,2.228,1.381,23.769,23.769,0,0,1,2.2-2.383c2.073-1.95,3.181-2.164,3.566-2.164h0a.759.759,0,0,1,.661.365,2.324,2.324,0,0,1-.033,1.752c-1.288,4.588-8.7,12.918-14.509,15.167-7.577,2.928-17.7,1.346-22.576-3.526a1.318,1.318,0,0,0-2.237.741,14.206,14.206,0,0,1-1.355,4.022c-1.3,2.481-3.112,3.739-5.377,3.739h-.094a5.862,5.862,0,0,0-1.961.337c-1.353-5.718-1.879-10.339-1.559-13.746a1.318,1.318,0,1,0-2.625-.246c-.364,3.878.258,9.1,1.843,15.529a5.887,5.887,0,0,0,3.047,9.777q.043,1.308.108,2.609a13.063,13.063,0,0,0,.741,3.714l-6.165-1.336a5.359,5.359,0,0,0-6.5,5.236v2.329h-.789a5.02,5.02,0,0,0-5.014,5.014V59.96a5.02,5.02,0,0,0,5.014,5.014h.789V79.012A5.39,5.39,0,0,0,37.14,84.25l26.394,5.72h0c.036.008.074.013.111.018h.025A1.317,1.317,0,0,0,63.8,90h7.078a1.317,1.317,0,0,0,.133-.007h.025a.525.525,0,0,0,.111-.018h0l26.393-5.72a5.39,5.39,0,0,0,4.224-5.238v-1.8a1.319,1.319,0,1,0-2.637,0v1.8a2.738,2.738,0,0,1-2.146,2.661L72.2,87.047V51.762l23.643-5.124a2.723,2.723,0,0,1,3.3,2.66v2.766a5.02,5.02,0,0,0-2.971,4.577v3.318a5.02,5.02,0,0,0,2.971,4.577v7.4a1.319,1.319,0,0,0,2.637,0V64.973h.789a5.02,5.02,0,0,0,5.014-5.014V56.641a5.02,5.02,0,0,0-5.015-5.014ZM91.315,33.318a3.258,3.258,0,0,1-1.936,2.973q.039-2.982-.047-5.97A3.262,3.262,0,0,1,91.315,33.318Zm-48.587,0a3.262,3.262,0,0,1,1.98-3q-.086,2.981-.044,5.969A3.258,3.258,0,0,1,42.728,33.318Zm4.742,8.23c-.2-3.83-.234-7.72-.112-11.581,2.694-.409,4.9-2.135,6.435-5.055a16.231,16.231,0,0,0,1.094-2.66A22.662,22.662,0,0,0,65.1,26.232a27.073,27.073,0,0,0,13.473-1.324,25.482,25.482,0,0,0,7.438-4.9,140.654,140.654,0,0,1,.561,21.54,10.426,10.426,0,0,1-1.4,4.7L70.739,49.381H63.955l-15.178-3.29a10.411,10.411,0,0,1-1.307-4.543ZM65.133,52.017h4.429V87.363H65.133ZM29.75,59.959V56.641a2.38,2.38,0,0,1,2.378-2.378H33.51a2.38,2.38,0,0,1,2.378,2.378v3.318a2.38,2.38,0,0,1-2.378,2.378H32.128a2.38,2.38,0,0,1-2.378-2.378Zm5.8,19.053V64.536a5.02,5.02,0,0,0,2.971-4.577V56.641a5.02,5.02,0,0,0-2.971-4.577V49.3a2.723,2.723,0,0,1,3.3-2.66L62.5,51.762V87.047L37.7,81.673a2.738,2.738,0,0,1-2.146-2.661Zm69.391-19.053a2.38,2.38,0,0,1-2.378,2.378h-1.382A2.38,2.38,0,0,1,98.8,59.959V56.641a2.38,2.38,0,0,1,2.378-2.378h1.382a2.38,2.38,0,0,1,2.378,2.378Z" fill="#79939e" stroke="#79939e" stroke-width="0.6"/>
    </g>
    <g id="outline" transform="translate(810.002 741.007)">
      <path id="Path_26" data-name="Path 26" d="M19.149,30.922A5.215,5.215,0,0,0,22,31.311a5.25,5.25,0,0,0,9.435-3.769,5.25,5.25,0,0,0-3.81-9.378,5.254,5.254,0,0,0-9.465,3.7,5.252,5.252,0,0,0,.986,9.056Zm.043-5.712a2.235,2.235,0,0,1,1.241-1.193,1.5,1.5,0,0,0,.85-1.944,2.25,2.25,0,0,1,4.191-1.64,1.5,1.5,0,0,0,1.943.85,2.248,2.248,0,1,1,1.706,4.159,1.5,1.5,0,0,0-.81,1.912l.014.036a2.25,2.25,0,1,1-4.188,1.645,1.5,1.5,0,0,0-2-.86l-.09.041a2.25,2.25,0,0,1-2.857-3.006Z" transform="translate(-0.002)" fill="#79939e"/>
      <path id="Path_27" data-name="Path 27" d="M310.028,43a5.251,5.251,0,0,0,9.145,4.427,5.252,5.252,0,0,0,4.355-9.14,5.25,5.25,0,0,0-9.113-4.49,5.252,5.252,0,0,0-4.388,9.2Zm1.315-5.052a2.25,2.25,0,0,1,3.013-1.024,1.5,1.5,0,0,0,2.009-.683A2.25,2.25,0,1,1,320.4,38.23a1.5,1.5,0,0,0,.683,2.009,2.248,2.248,0,1,1-1.92,4.065,1.5,1.5,0,0,0-1.973.721v.009a2.25,2.25,0,0,1-4.038-1.988l.023-.046a1.5,1.5,0,0,0-.737-2.012l-.091-.039a2.253,2.253,0,0,1-1.006-3Z" transform="translate(-237.339 -12.987)" fill="#79939e"/>
      <path id="Path_28" data-name="Path 28" d="M105.99,102.947c0-.017-1.533-6.186-1.533-6.186A1.5,1.5,0,0,0,103,95.625h-3V83.933l4.379-10.217A1.5,1.5,0,0,0,103,71.625H97a1.5,1.5,0,0,0-1.342.829l-4.5,9a1.5,1.5,0,0,0-.158.671v13.5H84.45l.4-3.206a4.5,4.5,0,0,0-1.35-8.794H81.78a5.243,5.243,0,0,0-3.7-6.58,5.25,5.25,0,0,0-10.159,0A5.25,5.25,0,0,0,65.5,78.46a5.25,5.25,0,0,0-2.42-1.415,5.227,5.227,0,0,0-.823-1.733A5.189,5.189,0,0,0,63.7,73.964a5.252,5.252,0,0,0,3.636-9.448A5.253,5.253,0,0,0,57.9,60.743a5.25,5.25,0,0,0-3.661,9.512A5.267,5.267,0,0,0,55.2,73.94a5.269,5.269,0,0,0-2.278,3.105A5.25,5.25,0,0,0,50.5,78.46a5.248,5.248,0,0,0-2.421-1.415,5.238,5.238,0,0,0-.922-1.869,5.261,5.261,0,0,0,.778-3.454,5.25,5.25,0,0,0-3.81-9.377,5.254,5.254,0,0,0-9.465,3.7,5.252,5.252,0,0,0,3.84,9.443c.02.027.043.053.063.079a5.185,5.185,0,0,0-.644,1.475A5.246,5.246,0,0,0,35.5,78.46a5.25,5.25,0,0,0-2.42-1.414,5.25,5.25,0,0,0-10.159,0A5.253,5.253,0,0,0,19.274,83.8a4.5,4.5,0,0,0-.123,8.622l5.862,46.894a1.5,1.5,0,0,0,1.488,1.313h51a1.5,1.5,0,0,0,1.488-1.314l.846-6.769.673,6.731A1.5,1.5,0,0,0,82,140.625h18a1.5,1.5,0,0,0,1.493-1.35l2.865-28.65h.143a1.5,1.5,0,0,0,1.5-1.5S105.994,102.983,105.99,102.947ZM103,107.625H79v-3h24ZM99.606,128l-17.519-3.092-.606-6.061,18.71,3.3Zm2.974-26.378H79.422l.75-3H101.83ZM94,82.479l3.927-7.854h2.8l-3.6,8.409a1.5,1.5,0,0,0-.121.591v12H94Zm-24.75-2.6a1.5,1.5,0,0,0,1.5-1.5,2.25,2.25,0,0,1,4.5,0,1.5,1.5,0,0,0,1.5,1.5,2.247,2.247,0,0,1,1.673,3.75H67.577a2.247,2.247,0,0,1,1.674-3.75ZM55.163,65.119a2.25,2.25,0,0,1,2.925-1.253,1.5,1.5,0,0,0,1.95-.836,2.25,2.25,0,1,1,4.178,1.67,1.5,1.5,0,0,0,.836,1.95,2.248,2.248,0,0,1-1.6,4.2,1.5,1.5,0,0,0-1.913.876h0a2.25,2.25,0,1,1-4.177-1.674l.018-.045a1.5,1.5,0,0,0-.889-1.944l-.1-.033a2.253,2.253,0,0,1-1.228-2.911Zm-.912,14.756a1.5,1.5,0,0,0,1.5-1.5,2.25,2.25,0,0,1,4.5,0,1.5,1.5,0,0,0,1.5,1.5A2.252,2.252,0,0,1,64,82.125a2.227,2.227,0,0,1-.579,1.5H52.577a2.247,2.247,0,0,1,1.674-3.75Zm-17.4-7.52a2.25,2.25,0,0,1,.082-4.157,1.5,1.5,0,0,0,.85-1.944,2.25,2.25,0,1,1,4.191-1.64,1.5,1.5,0,0,0,1.943.85,2.248,2.248,0,1,1,1.706,4.159,1.5,1.5,0,0,0-.818,1.89l.021.056a2.25,2.25,0,0,1-3.713,2.375h0a2.224,2.224,0,0,1-.476-.733V73.2a1.5,1.5,0,0,0-1.995-.844l-.09.041a2.235,2.235,0,0,1-1.7-.042Zm2.4,7.52a1.5,1.5,0,0,0,1.5-1.5A2.238,2.238,0,0,1,41,77.335a5.233,5.233,0,0,0,3.633-.072c.085-.033.166-.072.248-.109a2.246,2.246,0,0,1,.364,1.221,1.5,1.5,0,0,0,1.5,1.5A2.252,2.252,0,0,1,49,82.125a2.227,2.227,0,0,1-.579,1.5H37.577a2.247,2.247,0,0,1,1.674-3.75Zm-15,0a1.5,1.5,0,0,0,1.5-1.5,2.25,2.25,0,0,1,4.5,0,1.5,1.5,0,0,0,1.5,1.5A2.252,2.252,0,0,1,34,82.125a2.227,2.227,0,0,1-.579,1.5H22.577a2.247,2.247,0,0,1,1.674-3.75Zm-3.75,6.75h63a1.5,1.5,0,1,1,0,3h-63a1.5,1.5,0,0,1,0-3Zm45.048,51,.594-19a14.947,14.947,0,0,0,.261-9.174,1.492,1.492,0,0,0,.034-.267l.517-16.553H72.9l-2.813,45Zm-31.639,0-2.813-45h5.949l.528,16.9a14.964,14.964,0,0,0,.324,9.212,1.511,1.511,0,0,0-.026.323l.58,18.565Zm21.09-45v6.3a15.058,15.058,0,0,0-6,0v-6.3Zm8.593,11.494A15.08,15.08,0,0,0,58,99.881V92.625h5.952ZM46,99.881a15.08,15.08,0,0,0-5.593,4.238l-.359-11.494H46Zm-4.977,23.952A15.062,15.062,0,0,0,46,127.369v10.256H41.455ZM49,128.323a15.058,15.058,0,0,0,6,0v9.3H49Zm3-2.7a12,12,0,1,1,12-12,12,12,0,0,1-12,12Zm-29.8-33h5.892l2.813,45h-3.08Zm35.8,45V127.369a15.065,15.065,0,0,0,4.977-3.536l-.431,13.792Zm18.176,0H73.1l2.813-45H81.8l-.375,3H79a1.5,1.5,0,0,0-1.455,1.136s-1.531,6.169-1.533,6.186c0,.036-.012,6.178-.012,6.178a1.5,1.5,0,0,0,1.5,1.5h.143l.857,8.57a1.512,1.512,0,0,0-.049.23Zm7.181,0L82.4,128.01,99.307,131l-.664,6.629Zm17.132-18.466L81.171,115.75l-.512-5.124h20.685Z" transform="translate(0 -34.622)" fill="#79939e"/>
    </g>
    <g id="music" transform="translate(879.682 757.01)">
      <g id="Group_47" data-name="Group 47" transform="translate(91.117)">
        <g id="Group_46" data-name="Group 46">
          <path id="Path_29" data-name="Path 29" d="M148.355,80.22l-8.008-4v-2.1a1.318,1.318,0,0,0-1.318-1.318h-4.506v-4.71a12.986,12.986,0,0,0,11.648-12.9V36.264a7.136,7.136,0,0,0-2.912-5.751V7.142a7.143,7.143,0,1,0-14.286,0V19.079a7.135,7.135,0,0,0-11.269,3.245,7.125,7.125,0,0,0-9.391-.333V15.879a7.142,7.142,0,1,0-14.285,0V41.646a1.319,1.319,0,0,0,2.637,0V15.879a4.506,4.506,0,1,1,9.011,0V27.528h0v8.733a7.139,7.139,0,0,0,12.967,4.126,7.213,7.213,0,0,0,.539.673,7.126,7.126,0,0,0,5.285,2.343h7.418v3.242A15.9,15.9,0,0,0,117.325,62.47a1.318,1.318,0,0,0,2.637,0A13.257,13.257,0,0,1,133.2,49.231a1.318,1.318,0,0,0,1.318-1.318V43.406h.138a1.318,1.318,0,0,0,0-2.637H124.468a4.507,4.507,0,0,1-3.852-2.171c-.03-.049-.058-.1-.086-.15l-.022-.039a4.479,4.479,0,0,1-.545-2.146v-.007a4.511,4.511,0,0,1,4.506-4.5H139.03a4.511,4.511,0,0,1,4.506,4.506v18.93a10.342,10.342,0,0,1-10.33,10.33h-4.368a1.318,1.318,0,0,0,0,2.637h3.05V72.8H108.315V68.159h3.05a1.318,1.318,0,1,0,0-2.637H107a10.342,10.342,0,0,1-10.33-10.33V46.9a1.318,1.318,0,1,0-2.637,0v8.3a12.986,12.986,0,0,0,11.648,12.9v4.7h-4.506a1.318,1.318,0,0,0-1.318,1.318v2.1l-8.008,4a1.318,1.318,0,0,0,0,2.358l8.008,4v2.1A1.318,1.318,0,0,0,101.172,90h37.857a1.318,1.318,0,0,0,1.318-1.318v-2.1l8.008-4a1.318,1.318,0,0,0,0-2.358ZM117.326,36.264a4.506,4.506,0,1,1-9.012,0V27.528a4.506,4.506,0,1,1,9.012,0Zm11.648-7.143h-4.506a7.109,7.109,0,0,0-4.506,1.606V24.615a4.506,4.506,0,0,1,9.012,0Zm11.648.181a7.13,7.13,0,0,0-1.593-.181h-7.418v-4.5h0V7.142a4.506,4.506,0,1,1,9.012,0ZM99.854,83.636,95.384,81.4l4.47-2.236Zm2.637,3.728V75.44h35.22V87.363Zm37.857-3.728v-4.47l4.47,2.234Z" transform="translate(-91.117)" fill="#79939e" stroke="#79939e" stroke-width="0.6"/>
        </g>
      </g>
      <g id="Group_49" data-name="Group 49" transform="translate(105.678 75.714)">
        <g id="Group_48" data-name="Group 48">
          <path id="Path_30" data-name="Path 30" d="M179.638,430.731a5.686,5.686,0,1,0,5.686,5.686,5.686,5.686,0,0,0-5.686-5.686Zm0,8.736a3.05,3.05,0,1,1,3.05-3.05,3.05,3.05,0,0,1-3.05,3.05Z" transform="translate(-173.951 -430.731)" fill="#79939e" stroke="#79939e" stroke-width="0.6"/>
        </g>
      </g>
      <g id="Group_51" data-name="Group 51" transform="translate(123.15 75.714)">
        <g id="Group_50" data-name="Group 50">
          <path id="Path_31" data-name="Path 31" d="M279.037,430.731a5.686,5.686,0,1,0,5.687,5.687,5.686,5.686,0,0,0-5.687-5.687Zm0,8.736a3.05,3.05,0,1,1,3.05-3.05,3.05,3.05,0,0,1-3.05,3.05Z" transform="translate(-273.351 -430.731)" fill="#79939e" stroke="#79939e" stroke-width="0.6"/>
        </g>
      </g>
    </g>
    <g id="science" transform="translate(1074.003 756.01)">
      <path id="Path_32" data-name="Path 32" d="M27.662,23.86a3.246,3.246,0,0,1-5.806,0l-.152-.306-2.6,1.3.152.3a6.149,6.149,0,0,0,11,0l.152-.306-2.6-1.3Z" transform="translate(8.177 10.185)" fill="#79939e"/>
      <path id="Path_33" data-name="Path 33" d="M87.278,72.7,82.29,68.546V56.161a2.906,2.906,0,0,0-2.9-2.9h-2.9a2.906,2.906,0,0,0-2.9,2.9V68.546l-5,4.154a10.3,10.3,0,0,0-2.147,2.5l-1.575-2.1V58.7A31.751,31.751,0,0,0,76.484,34.075V31.218a4.349,4.349,0,0,0,2.9-4.088V21.324a4.36,4.36,0,0,0-4.355-4.355,4.306,4.306,0,0,0-1.452.267V11.161a4.355,4.355,0,1,0-8.71,0v6.074a4.306,4.306,0,0,0-1.452-.267,4.355,4.355,0,0,0,0,8.71,4.306,4.306,0,0,0,1.452-.267v.267A21.8,21.8,0,0,1,43.1,47.452H35.589l-.582-3.075a11.458,11.458,0,0,0,9.215-8.6,10.146,10.146,0,0,0,7.2-15.9A10.147,10.147,0,0,0,41.613,4.018,10.139,10.139,0,0,0,28.581,2.833,10.149,10.149,0,0,0,12.7,9.8,10.159,10.159,0,0,0,7.786,27.858a7.188,7.188,0,0,0-.98,3.626,7.271,7.271,0,0,0,5.928,7.136,7.177,7.177,0,0,0,8.588,5.766v3.231A23.407,23.407,0,0,0,1,70.73v4.3A15.987,15.987,0,0,0,16.968,91H35.839a5.756,5.756,0,0,0,2.35-.507,4.337,4.337,0,0,0,2,.507H48.9a4.314,4.314,0,0,0,1.6-.314A4.722,4.722,0,0,0,52.169,91H68.863a4.677,4.677,0,0,0,2.526-.748A10.385,10.385,0,0,0,75.22,91h5.432a10.35,10.35,0,0,0,6.627-18.3ZM79.387,56.16v5.806h-2.9v-5.8ZM70.454,74.931l6.03-5.025V64.871h2.9V69.9l6.03,5.025a7.422,7.422,0,0,1,2.511,4.156,6.6,6.6,0,0,1-1.38-.861,7.329,7.329,0,0,0-9.486,0,4.453,4.453,0,0,1-6,0,8.635,8.635,0,0,0-2.25-1.325,7.374,7.374,0,0,1,1.645-1.97ZM66.1,79.577a7.587,7.587,0,0,0-1.719-.19,7.131,7.131,0,0,0-4.742,1.742,4.311,4.311,0,0,1-3,1.161,4.216,4.216,0,0,1-2.919-1.1l5.342-7.123v-3.39h2.9v3.387ZM47.452,66.061l3.359-.672a32.108,32.108,0,0,0,5.351-1.572V73.1l-2.9,3.871v-3.39a2.906,2.906,0,0,0-2.9-2.9h-2.9Zm14.516,1.713h-2.9v-2.9h2.9Zm0-5.806h-2.9V56.161h2.9Zm13.065-42.1a1.453,1.453,0,0,1,1.452,1.452v5.806a1.452,1.452,0,0,1-2.9,0v-5.8a1.453,1.453,0,0,1,1.447-1.452ZM69.226,9.71a1.453,1.453,0,0,1,1.452,1.452v5.806h-2.9V11.161A1.453,1.453,0,0,1,69.226,9.71ZM63.419,22.774a1.452,1.452,0,1,1,1.452-1.452A1.452,1.452,0,0,1,63.419,22.774Zm4.355-2.9h2.9V30.032a1.452,1.452,0,1,1-2.9,0Zm-1.26,13.542a4.309,4.309,0,0,0,6.9-2.249c.054.022.113.032.168.052v2.858a28.847,28.847,0,0,1-8.943,20.95,2.9,2.9,0,0,0-2.67-1.767h-2.9a2.906,2.906,0,0,0-2.9,2.9v4.51a29.131,29.131,0,0,1-5.92,1.873l-2.79.557V59.065h-2.9V70.677H38.742V50.355H43.1A24.707,24.707,0,0,0,66.514,33.413ZM35.839,79.387h-.19a4.146,4.146,0,0,0-1.778-2.27L31.548,60.859l1.521-2.282,2.77,1.385Zm-7.849-.613-.306.613H25.9l2.488-17.419h.385L30.863,76.6a4.091,4.091,0,0,0-2.873,2.175ZM22.246,50.427l3.885,3.885-4.808,2.4V50.539c.3-.046.614-.08.923-.112Zm12.742-.073h.851v6.361l-4.808-2.4Zm-5.732,8.71h-1.35l-1.2-1.8,1.873-.936,1.873.936Zm-7.933.9,2.77-1.385,1.521,2.282L22.966,79.387H21.323ZM41.645,33.1a8.539,8.539,0,0,1-11.24,8.1l-2.816-.939L26.67,43.02l2.816.939a11.454,11.454,0,0,0,2.582.5l.749,3.954L28.58,52.652,24.226,48.3V30.587L19.6,28.274a2.137,2.137,0,0,1,.957-4.049h.766a5.806,5.806,0,1,0,11.613,0h2.9a5.812,5.812,0,0,0,5.806,5.806ZM40.194,15.516a1.453,1.453,0,0,1,1.452,1.452V18.42a5.788,5.788,0,0,0-5,2.9H32.127a5.706,5.706,0,0,0-7.834-2.132,4.354,4.354,0,0,1,4.288-3.674Zm1.452,11.613a2.9,2.9,0,1,1,2.9-2.9,2.9,2.9,0,0,1-2.9,2.9ZM27.129,21.323a2.9,2.9,0,1,1-2.9,2.9A2.9,2.9,0,0,1,27.129,21.323ZM19.871,41.645a4.36,4.36,0,0,1-4.355-4.355V35.839H14.065A4.342,4.342,0,0,1,10.913,28.5L12.2,27.138l-1.643-.907a7.258,7.258,0,0,1,3.5-13.615h1.452V11.161a7.249,7.249,0,0,1,12.1-5.4l.968.868.968-.868a7.243,7.243,0,0,1,10.423.762l.575.692.877-.208A7.245,7.245,0,0,1,48.5,18.9l-.871.97.871.97a7.246,7.246,0,0,1-3.947,11.948V29.225a5.756,5.756,0,0,0,0-10V16.968A4.36,4.36,0,0,0,40.2,12.613H34.387a1.452,1.452,0,1,1,0-2.9h1.452v-2.9H34.387a4.36,4.36,0,0,0-4.355,4.355A4.306,4.306,0,0,0,30.3,12.62H28.581a7.266,7.266,0,0,0-7.258,7.258V21.33h-.766A5.04,5.04,0,0,0,18.3,30.87l3.021,1.511v8.983a4.335,4.335,0,0,1-1.452.282ZM3.9,75.032v-4.3A20.508,20.508,0,0,1,18.419,51.2V79.387H16.968a4.36,4.36,0,0,1-4.355-4.355V64.871H9.71V75.032a7.266,7.266,0,0,0,7.258,7.258H27.129V88.1H16.968A13.08,13.08,0,0,1,3.9,75.032ZM30.032,88.1V81.181l.555-1.109a1.24,1.24,0,0,1,2.349.555V82.29h2.9a2.9,2.9,0,0,1,0,5.806Zm10.806,0a5.714,5.714,0,0,0-2.1-7.9V73.581H50.355v2.9H44.548v2.9h5.806v2.9h-2.9v2.9h2.9v1.452A1.453,1.453,0,0,1,48.9,88.1Zm28.025,0H52.991a4.306,4.306,0,0,0,.267-1.452V84.363a6.715,6.715,0,0,0,3.384.83,7.131,7.131,0,0,0,4.742-1.742,4.459,4.459,0,0,1,6,0A8.168,8.168,0,0,0,70.1,84.9l.218.29a1.815,1.815,0,0,1-1.452,2.9Zm11.789,0H75.22a7.458,7.458,0,0,1-1.923-.258,4.652,4.652,0,0,0,.285-1.556,4.741,4.741,0,0,0-.944-2.831L71.4,81.8a6.927,6.927,0,0,0,2.664.492A7.131,7.131,0,0,0,78.8,80.548a4.459,4.459,0,0,1,6,0,7.59,7.59,0,0,0,3.141,1.581,7.457,7.457,0,0,1-7.3,5.968Z" fill="#79939e"/>
    </g>
    <g id="cats" transform="translate(1199.341 757.01)">
      <g id="Group_52" data-name="Group 52" transform="translate(60.435)">
        <path id="Path_34" data-name="Path 34" d="M349.747,104.393l1.451,4.079a.654.654,0,0,0,.34.383l3.624,1.633a.723.723,0,0,1,0,1.277l-3.624,1.633a.655.655,0,0,0-.34.383l-1.451,4.08a.589.589,0,0,1-1.135,0l-1.451-4.08a.654.654,0,0,0-.34-.383l-3.624-1.633a.723.723,0,0,1,0-1.277l3.624-1.633a.655.655,0,0,0,.34-.383l1.451-4.079a.589.589,0,0,1,1.135,0Z" transform="translate(-342.812 -85.686)" fill="#79939e"/>
        <path id="Path_35" data-name="Path 35" d="M461.129.321,462.2,3.347a.485.485,0,0,0,.252.284l2.689,1.211a.536.536,0,0,1,0,.947L462.458,7a.485.485,0,0,0-.252.284L461.13,10.31a.437.437,0,0,1-.842,0l-1.076-3.026A.485.485,0,0,0,458.959,7L456.27,5.79a.536.536,0,0,1,0-.947l2.689-1.211a.485.485,0,0,0,.252-.284L460.287.321a.437.437,0,0,1,.842,0Z" transform="translate(-436.091)" fill="#79939e"/>
        <circle id="Ellipse_15" data-name="Ellipse 15" cx="3.168" cy="3.168" r="3.168" transform="translate(0.13 4.121)" fill="#79939e"/>
        <circle id="Ellipse_16" data-name="Ellipse 16" cx="1.367" cy="1.367" r="1.367" transform="translate(20.29 27.6) rotate(-82.996)" fill="#79939e"/>
      </g>
      <g id="Group_53" data-name="Group 53" transform="translate(0.212 0.7)">
        <path id="Path_36" data-name="Path 36" d="M135.454,174.429h0a2.774,2.774,0,0,1-2.279-1.2,6.505,6.505,0,0,0,.917-1.078,1.06,1.06,0,0,0-1.751-1.194,3.738,3.738,0,0,1-.764.855,4.061,4.061,0,0,1-.963-.932,1.06,1.06,0,1,0-1.682,1.289A7.023,7.023,0,0,0,130,173.281a2.781,2.781,0,0,1-2.245,1.158,1.06,1.06,0,0,0,0,2.119h0a4.911,4.911,0,0,0,3.851-1.888,4.9,4.9,0,0,0,3.849,1.879h.005a1.06,1.06,0,0,0,0-2.119Z" transform="translate(-104.457 -141.199)" fill="#79939e"/>
        <path id="Path_37" data-name="Path 37" d="M59.108,188.675H59.1L54,188.63a1.06,1.06,0,1,1,.019-2.119l5.1.045a1.06,1.06,0,0,1-.009,2.119Z" transform="translate(-43.678 -154.424)" fill="#79939e"/>
        <path id="Path_38" data-name="Path 38" d="M59.266,210h-.01l-5.1-.046a1.06,1.06,0,1,1,.019-2.12l5.1.046a1.06,1.06,0,1,1-.009,2.12Z" transform="translate(-43.808 -171.998)" fill="#79939e"/>
        <path id="Path_39" data-name="Path 39" d="M221.512,189.179h-.01l-5.1-.046a1.06,1.06,0,0,1,.009-2.119h.01l5.1.046a1.06,1.06,0,0,1-.009,2.119Z" transform="translate(-177.534 -154.84)" fill="#79939e"/>
        <path id="Path_40" data-name="Path 40" d="M221.67,210.5h-.01l-5.1-.045a1.06,1.06,0,0,1,.009-2.119h.01l5.1.045a1.06,1.06,0,0,1-.009,2.119Z" transform="translate(-177.664 -172.416)" fill="#79939e"/>
        <path id="Path_41" data-name="Path 41" d="M43.229,52.676a1.525,1.525,0,0,1-.257-.021c-.815-.14-1.374-.927-1.71-2.406-.009-.042-.927-4.184.735-5.36,1.622-1.147,5.129,1.037,5.277,1.131,1.311.826,1.858,1.58,1.722,2.372-.126.734-.97,1.668-2.51,2.775a6.483,6.483,0,0,1-3.257,1.509Zm.016-6.015a7.779,7.779,0,0,0,.277,3.816,12.12,12.12,0,0,0,3.2-2.267,8.338,8.338,0,0,0-3.465-1.549h-.011Zm-.636-.907Z" transform="translate(-33.83 -37.424)" fill="#79939e"/>
        <path id="Path_42" data-name="Path 42" d="M230.584,49.178a6.257,6.257,0,0,1-3.213-1.646c-1.51-1.184-2.32-2.18-2.408-2.961-.093-.822.507-1.578,1.834-2.313.038-.021,3.761-2.056,5.353-.788,1.554,1.238.433,5.215.384,5.384-.428,1.489-1,2.225-1.8,2.315a1.361,1.361,0,0,1-.15.009Zm-3.376-4.686a12.125,12.125,0,0,0,3.069,2.441,8.288,8.288,0,0,0,.519-3.77A7.757,7.757,0,0,0,227.208,44.492Zm3.621-1.363Z" transform="translate(-185.447 -34.538)" fill="#79939e"/>
        <path id="Path_43" data-name="Path 43" d="M88.987,48.928a14.384,14.384,0,0,0-8.972-5.89,11.792,11.792,0,0,0-8.57,1.769,12.18,12.18,0,0,0-5.185,7.684A13.8,13.8,0,0,0,68.016,62.4c.738,1.269.672,1.914.472,2.288a48.475,48.475,0,0,0-10.306-13.36,55.182,55.182,0,0,0-6.771-5.379,14.348,14.348,0,0,0,3.438-9.336,31.007,31.007,0,0,0-3.523-14.15C53.041,16.763,54.488,7.3,49.934,4.7,46.106,2.519,40.6,5.8,37.314,7.753c-.36.214-.776.462-1.08.631a24.715,24.715,0,0,0-8.351-1.431h-.031a24.086,24.086,0,0,0-9.31,1.907c-.354-.2-.854-.516-1.283-.785-3.183-1.99-7.992-5-11.586-3.458-2.6,1.115-3.883,3.74-3.812,7.8A43.925,43.925,0,0,0,3.541,22.2,32.21,32.21,0,0,0,.212,36.679c.007,5.983,3.56,11.06,10.277,14.683a35.046,35.046,0,0,0,5.144,2.246,47.655,47.655,0,0,0-.669,8.352,31.483,31.483,0,0,0,.614,6.533l2.848,19.6-.379,1.11a3.046,3.046,0,0,0,2.882,4.03h6.109a1.758,1.758,0,0,0,.8-.191,1.76,1.76,0,0,0,.8.191h6.109a3.046,3.046,0,0,0,2.882-4.03l-.3-.879q1.494.3,3.145.492l.021-.025c.217,2.666,2.347,4.489,5.33,4.489H59.3a6.562,6.562,0,0,0,6.476-5.558,14.672,14.672,0,0,0,5.753-11.3q0-.033,0-.066a14.933,14.933,0,0,0,2.019-1.015,13.431,13.431,0,0,0,6.012-7.5,13.737,13.737,0,0,0-1.618-11.21c-.679-1.168-.555-1.986-.153-2.253.306-.2,1.142.283,2.015,1.444a5.742,5.742,0,1,0,9.184-6.894Zm-76.821-.674c-3.838-2.071-8.415-5.76-8.421-11.579A28.2,28.2,0,0,1,6.97,23.28l.351-.628-.188-.695C6.287,18.826,3.713,9.3,7.065,7.864a2.093,2.093,0,0,1,.826-.149c2.131,0,5.673,2.216,7.495,3.355,2.022,1.264,2.859,1.788,3.947,1.3q.24-.108.48-.209L19.719,17.6a1.766,1.766,0,0,0,1.735,1.8h.031a1.766,1.766,0,0,0,1.765-1.736L23.366,11a20.253,20.253,0,0,1,2.4-.4l.2,12.028a1.766,1.766,0,0,0,1.766,1.737h.03a1.766,1.766,0,0,0,1.737-1.8l-.2-12.04a20.236,20.236,0,0,1,2.377.286l-.116,6.676a1.766,1.766,0,0,0,1.735,1.8h.031a1.766,1.766,0,0,0,1.765-1.735l.1-5.793.455.162c.973.357,1.656-.049,3.479-1.134,2.1-1.251,7.023-4.181,9.063-3.017,1.473.84,2.017,6.7-.443,14.333l-.233.723.364.666a27.55,27.55,0,0,1,3.445,13.127,11.338,11.338,0,0,1-3.659,8.216c-4.864,4.833-13.851,7.412-19.924,7.412h-.16a35.637,35.637,0,0,1-15.407-4ZM68.007,75.99c0,.049-.008.1-.008.149v.144h0a10.864,10.864,0,0,1-4.833,8.937,1.766,1.766,0,0,0-.847,1.508A3.022,3.022,0,0,1,59.3,89.749H45.821c-.816,0-1.786-.237-1.817-1.354a4.179,4.179,0,0,1,2.068-1.455c.051-.019.1-.041.15-.065l1.93-.949a1.766,1.766,0,0,0,.931-2.026,2.146,2.146,0,0,0-1.63-1.458,2.217,2.217,0,0,1-1.89-2.464c-.068-3.955,3.956-6.659,10.253-6.887a1.766,1.766,0,1,0-.128-3.53,17.678,17.678,0,0,0-9.679,2.872,9.014,9.014,0,0,0-3.977,7.607,5.841,5.841,0,0,0,1.561,4.166,8.244,8.244,0,0,0-1.67,1.2,35.615,35.615,0,0,1-4.2-.615l1.923-13.263a1.768,1.768,0,0,0-3.5-.507L33.688,88.008a1.764,1.764,0,0,0,.077.824l.3.869H30.256L28.83,72.756a1.766,1.766,0,1,0-3.52.3h0v.068L25.275,89.7H21.609l.3-.869a1.771,1.771,0,0,0,.076-.825l-3.324-22.88c-.007-.047-.017-.094-.028-.14-.089-.948-.135-1.952-.135-3.027a45.5,45.5,0,0,1,.537-7.34A37.333,37.333,0,0,0,27.55,55.78h.188c6.447,0,15.406-2.481,21.134-7.278a51.083,51.083,0,0,1,6.9,5.414c7.45,6.941,12.138,15.353,12.233,21.953v.12Zm18.576-23.3a2.209,2.209,0,0,1-3.954,1.01c-2.5-3.333-5.149-3.356-6.791-2.267-1.739,1.153-2.778,3.827-.948,6.973a10.3,10.3,0,0,1,1.295,8.4,9.907,9.907,0,0,1-4.456,5.516q-.25.15-.507.286a26.069,26.069,0,0,0-1.209-4.417,7.571,7.571,0,0,0,.8-.741c2.159-2.3,1.334-4.976.262-6.819a10.33,10.33,0,0,1-1.355-7.4,8.667,8.667,0,0,1,3.68-5.48c3.309-2.194,8.715-2.1,12.766,3.3a2.195,2.195,0,0,1,.42,1.637Z" transform="translate(-0.212 -3.98)" fill="#79939e"/>
        <path id="Path_44" data-name="Path 44" d="M251.1,298.876a1.06,1.06,0,0,1-1.06-1.06v-2.137a1.06,1.06,0,0,1,2.12,0v2.137a1.06,1.06,0,0,1-1.06,1.06Z" transform="translate(-206.125 -243.53)" fill="#79939e"/>
        <path id="Path_45" data-name="Path 45" d="M309.26,320.727a1.06,1.06,0,0,1-1.06-1.06V317.53a1.06,1.06,0,1,1,2.119,0v2.137a1.06,1.06,0,0,1-1.059,1.06Z" transform="translate(-254.061 -261.54)" fill="#79939e"/>
        <path id="Path_46" data-name="Path 46" d="M278.5,328.442a1.06,1.06,0,0,1-1.06-1.06v-2.137a1.06,1.06,0,1,1,2.12,0v2.137A1.06,1.06,0,0,1,278.5,328.442Z" transform="translate(-228.71 -267.899)" fill="#79939e"/>
        <path id="Path_47" data-name="Path 47" d="M78.014,143.1a2.347,2.347,0,1,1-2.347-2.347,2.347,2.347,0,0,1,2.347,2.347Z" transform="translate(-60.47 -116.707)" fill="#79939e"/>
        <path id="Path_48" data-name="Path 48" d="M213.429,143.1a2.347,2.347,0,1,1-2.347-2.347,2.347,2.347,0,0,1,2.347,2.347Z" transform="translate(-172.081 -116.707)" fill="#79939e"/>
      </g>
    </g>
    <g id="cactus" transform="translate(1067.565 627.01)">
      <g id="Group_55" data-name="Group 55" transform="translate(46.665 30.773)">
        <g id="Group_54" data-name="Group 54">
          <path id="Path_51" data-name="Path 51" d="M177.286,175.067a1.318,1.318,0,0,0-1.318,1.318v2.307a1.318,1.318,0,0,0,2.637,0v-2.307a1.318,1.318,0,0,0-1.319-1.318Z" transform="translate(-175.968 -175.067)" fill="#79939e" stroke="#79939e" stroke-width="0.8"/>
        </g>
      </g>
      <g id="Group_57" data-name="Group 57" transform="translate(72.161 30.774)">
        <g id="Group_56" data-name="Group 56">
          <path id="Path_52" data-name="Path 52" d="M322.331,175.068a1.318,1.318,0,0,0-1.318,1.318v2.307a1.318,1.318,0,1,0,2.637,0v-2.307A1.318,1.318,0,0,0,322.331,175.068Z" transform="translate(-321.013 -175.068)" fill="#79939e" stroke="#79939e" stroke-width="0.8"/>
        </g>
      </g>
      <g id="Group_59" data-name="Group 59" transform="translate(56.266 32.92)">
        <g id="Group_58" data-name="Group 58">
          <path id="Path_53" data-name="Path 53" d="M239.069,187.6a1.318,1.318,0,0,0-1.86.125,2.934,2.934,0,0,1-4.307,0,1.318,1.318,0,0,0-1.985,1.735,5.569,5.569,0,0,0,8.278,0,1.318,1.318,0,0,0-.126-1.86Z" transform="translate(-230.591 -187.279)" fill="#79939e" stroke="#79939e" stroke-width="0.8"/>
        </g>
      </g>
      <g id="Group_61" data-name="Group 61" transform="translate(71.82 6.411)">
        <g id="Group_60" data-name="Group 60">
          <circle id="Ellipse_19" data-name="Ellipse 19" cx="2.165" cy="2.165" r="2.165" transform="translate(0 0)" fill="#79939e" stroke="#79939e" stroke-width="0.8"/>
        </g>
      </g>
      <g id="Group_63" data-name="Group 63" transform="translate(19.088)">
        <g id="Group_62" data-name="Group 62">
          <path id="Path_54" data-name="Path 54" d="M100.034,31a8.627,8.627,0,0,0-12.2-.372c-.53.5-1.069.984-1.611,1.46l.072-.771a26.273,26.273,0,0,0-1.6-11.817l1.821-.756A1.318,1.318,0,1,0,85.5,16.311l-1.874.778a25.556,25.556,0,0,0-3.01-4.65A4.254,4.254,0,0,0,80.9,7.9a1.642,1.642,0,0,1-.172-1.084,4.276,4.276,0,0,0-4.191-5.06c-.652,0-1.264.238-1.879-.1a4.264,4.264,0,0,0-6.149,2.577A25.649,25.649,0,0,0,62.045,3.07V1.318a1.318,1.318,0,1,0-2.637,0V3.072a25.476,25.476,0,0,0-11.23,3.215L47.189,4.65a1.318,1.318,0,0,0-2.254,1.367L45.95,7.691q-.5.349-.983.723a25.451,25.451,0,0,0-7.137,8.674l-1.87-.777a1.318,1.318,0,0,0-1.011,2.435l1.818.755a26.346,26.346,0,0,0-1.606,11.811l.072.771q-.812-.714-1.61-1.46A8.628,8.628,0,1,0,21.8,43.191,68.675,68.675,0,0,0,37.326,54.425l.23,2.459h-.733a4.088,4.088,0,0,0-4.083,4.084v4.368a4.09,4.09,0,0,0,2.967,3.927l2.746,14.071A8.259,8.259,0,0,0,46.543,90H74.918a8.259,8.259,0,0,0,8.091-6.665l2.746-14.071a4.09,4.09,0,0,0,2.967-3.927V60.968a4.088,4.088,0,0,0-4.083-4.084H83.9l.23-2.459A68.681,68.681,0,0,0,99.661,43.191a8.627,8.627,0,0,0,.373-12.2ZM23.607,41.27a5.991,5.991,0,1,1,8.209-8.727c1.229,1.156,2.495,2.26,3.768,3.286l1.447,15.449A68.168,68.168,0,0,1,23.607,41.27ZM69.694,7.752a4.31,4.31,0,0,0,1.3-2.552,1.648,1.648,0,0,1,1.628-1.429,1.615,1.615,0,0,1,.78.2,4.309,4.309,0,0,0,2.829.448,1.653,1.653,0,0,1,1.91,1.91,4.287,4.287,0,0,0,.448,2.829,1.615,1.615,0,0,1,.021,1.527,1.651,1.651,0,0,1-1.229.877,4.354,4.354,0,0,0-2.57,1.3A1.66,1.66,0,0,1,72.563,13a3.107,3.107,0,0,1-.593-.874,4.327,4.327,0,0,0-1.854-1.7A1.615,1.615,0,0,1,69.2,9.2a1.638,1.638,0,0,1,.494-1.448Zm14.944,51.77a1.448,1.448,0,0,1,1.447,1.447v4.368a1.448,1.448,0,0,1-1.447,1.447h-9.2a1.319,1.319,0,0,0,0,2.637h7.6L80.421,82.83a5.617,5.617,0,0,1-5.5,4.533H46.544a5.617,5.617,0,0,1-5.5-4.533l-2.62-13.41H70.167a1.318,1.318,0,1,0,0-2.637H36.824a1.448,1.448,0,0,1-1.447-1.447V60.968a1.448,1.448,0,0,1,1.447-1.447H47.316a1.319,1.319,0,1,0,0-2.637h-7.11l-.322-3.432L38.176,35.221l-.389-4.155A23.7,23.7,0,0,1,39.2,20.513l1.357.564a1.318,1.318,0,0,0,1.011-2.435l-1.3-.539a22.8,22.8,0,0,1,6.306-7.6q.366-.283.741-.549l.765,1.262a1.318,1.318,0,1,0,2.254-1.367l-.788-1.3a22.864,22.864,0,0,1,9.86-2.83V7.395a1.319,1.319,0,1,0,2.637,0V5.715a23.04,23.04,0,0,1,5.192.888l-.008.014A4.323,4.323,0,0,0,66.6,9.61a4.273,4.273,0,0,0,2.384,3.19,1.652,1.652,0,0,1,.776.776,4.276,4.276,0,0,0,6.961,1.107h0a1.653,1.653,0,0,1,.978-.5,4.272,4.272,0,0,0,.79-.179,22.9,22.9,0,0,1,2.693,4.1l-1.3.538a1.318,1.318,0,0,0-.712,1.723,1.334,1.334,0,0,0,1.723.712l1.355-.563a23.63,23.63,0,0,1,1.419,10.552l-.371,3.96L81.578,53.453l-.321,3.432H52.589a1.319,1.319,0,0,0,0,2.637Zm15.1-22.432a5.952,5.952,0,0,1-1.883,4.18A68.169,68.169,0,0,1,84.43,51.279L85.877,35.83c1.274-1.027,2.54-2.131,3.768-3.286A5.99,5.99,0,0,1,99.738,37.09Z" transform="translate(-19.088)" fill="#79939e" stroke="#79939e" stroke-width="0.8"/>
        </g>
      </g>
    </g>
    <g id="dog" transform="translate(1292.003 725.01)">
      <path id="Path_55" data-name="Path 55" d="M106.123,111.558l-1.6-30.375a.36.36,0,0,0-.006-.08l-.679-6.448a8.139,8.139,0,0,1,1.729-5.874c.017-.019.033-.04.049-.06a8.306,8.306,0,0,1,.577-.642l2.9-2.9h1.581a11.589,11.589,0,0,0,11.009-7.935l1.494-4.481a1.526,1.526,0,0,0-.881-1.9l-9.1-3.642-3.661-4.576A13.679,13.679,0,0,0,98.8,37.486H90.238l-3.376-4.219a3.105,3.105,0,0,0-3.4-1.059,4.288,4.288,0,0,0-2.783,3.938,1.533,1.533,0,0,0,0,.284L81.9,47.468l.363,10.091-29.6,48.106c-2.382-.251-9.027-1.677-9.027-9.794a1.525,1.525,0,0,0-3.043-.152c-.038.382-.876,9.421,4.234,15.457A14.982,14.982,0,0,0,55.756,116.3a3.783,3.783,0,0,1,2,.789l4.313,3.234a8.617,8.617,0,0,0,5.137,1.712H93.3a1.525,1.525,0,0,0,1.525-1.525,9.121,9.121,0,0,0-5.646-8.423,28.928,28.928,0,0,0,3.187-3.428,23.308,23.308,0,0,0,2.755-4.407l2.353,16.473a1.526,1.526,0,0,0,1.51,1.31h11.372a1.526,1.526,0,0,0,1.525-1.525v-1.9a7.225,7.225,0,0,0-5.757-7.064ZM84.114,60.4l18.039,8.017a11.2,11.2,0,0,0-1.348,6.543l.424,4.04-21.6-11.312Zm.112-25.2a.323.323,0,0,1,.192-.085.212.212,0,0,1,.063.059l3.833,4.792a1.526,1.526,0,0,0,1.191.572h9.289a10.642,10.642,0,0,1,8.351,4.014l3.912,4.89a1.529,1.529,0,0,0,.625.463l8.142,3.257-1.039,3.116a8.542,8.542,0,0,1-8.114,5.848h-2.213a1.527,1.527,0,0,0-1.079.447l-3.341,3.341L85.332,57.606l-.37-10.3a.547.547,0,0,0-.008-.114L83.738,36.255a1.561,1.561,0,0,1,.487-1.05Zm24.6,83.787H100.3L96.805,94.5c-.031-.256-.067-.512-.11-.767a.23.23,0,0,0-.012-.045,11.547,11.547,0,0,0-11.5-10.706h-1.13a11.517,11.517,0,0,0-11.19,8.737,1.526,1.526,0,1,0,2.96.74,8.471,8.471,0,0,1,8.23-6.426h1.13a8.493,8.493,0,0,1,8.483,8.483v3.259a1.512,1.512,0,0,0,.1.527,17.227,17.227,0,0,1-3.747,8.413,25.325,25.325,0,0,1-5.149,4.953,1.525,1.525,0,0,0,.846,2.795,6.067,6.067,0,0,1,5.861,4.531H67.211a5.544,5.544,0,0,1-3.306-1.1l-4.312-3.234a6.814,6.814,0,0,0-3.629-1.392,12.053,12.053,0,0,1-8.787-4.04A12.993,12.993,0,0,1,45.2,106a15.668,15.668,0,0,0,8.3,2.775,1.526,1.526,0,0,0,1.3-.726L78.03,70.288l23.514,12.317,1.6,30.41a1.525,1.525,0,0,0,1.524,1.445,4.165,4.165,0,0,1,4.161,4.161v.37Z" transform="translate(-5.277 -0.042)" fill="#79939e" stroke="#79939e" stroke-width="0.5"/>
      <circle id="Ellipse_20" data-name="Ellipse 20" cx="1.895" cy="1.895" r="1.895" transform="translate(96.942 51.373) rotate(-67.486)" fill="#79939e" stroke="#79939e" stroke-width="0.5"/>
      <path id="Path_56" data-name="Path 56" d="M52,69.871A1.525,1.525,0,0,0,53.525,71.4H58.1v4.576A1.525,1.525,0,0,0,59.627,77.5h6.1a1.525,1.525,0,0,0,1.525-1.525V71.4h4.576a1.525,1.525,0,0,0,1.525-1.525v-6.1a1.525,1.525,0,0,0-1.525-1.525H67.254V57.755a1.525,1.525,0,0,0-1.525-1.525h-6.1A1.526,1.526,0,0,0,58.1,57.755v4.489H53.525A1.525,1.525,0,0,0,52,63.769Zm3.051-4.576h4.576a1.526,1.526,0,0,0,1.525-1.525V59.281H64.2V63.77a1.526,1.526,0,0,0,1.525,1.525H70.3v3.051H65.729A1.526,1.526,0,0,0,64.2,69.871v4.576H61.153V69.871a1.526,1.526,0,0,0-1.525-1.525H55.051Z" transform="translate(-12.373 -14.99)" fill="#79939e" stroke="#79939e" stroke-width="0.5"/>
      <path id="Path_57" data-name="Path 57" d="M240,145.525V150.1a1.525,1.525,0,1,0,3.051,0v-4.576a1.525,1.525,0,1,0-3.051,0Z" transform="translate(-128.678 -69.288)" fill="#79939e" stroke="#79939e" stroke-width="0.5"/>
      <path id="Path_58" data-name="Path 58" d="M241.525,172A1.525,1.525,0,0,0,240,173.525V178.1a1.525,1.525,0,1,0,3.051,0v-4.576A1.525,1.525,0,0,0,241.525,172Z" transform="translate(-128.678 -86.61)" fill="#79939e" stroke="#79939e" stroke-width="0.5"/>
      <path id="Path_59" data-name="Path 59" d="M226.1,164h-4.576a1.525,1.525,0,0,0,0,3.051H226.1a1.525,1.525,0,0,0,0-3.051Z" transform="translate(-116.305 -81.661)" fill="#79939e" stroke="#79939e" stroke-width="0.5"/>
      <path id="Path_60" data-name="Path 60" d="M254.1,164h-4.576a1.525,1.525,0,1,0,0,3.051H254.1a1.525,1.525,0,0,0,0-3.051Z" transform="translate(-133.627 -81.661)" fill="#79939e" stroke="#79939e" stroke-width="0.5"/>
      <circle id="Ellipse_21" data-name="Ellipse 21" cx="1.525" cy="1.525" r="1.525" transform="translate(51.831 76.237)" fill="#79939e" stroke="#79939e" stroke-width="0.5"/>
      <circle id="Ellipse_22" data-name="Ellipse 22" cx="1.525" cy="1.525" r="1.525" transform="translate(36.576 32)" fill="#79939e" stroke="#79939e" stroke-width="0.5"/>
      <path id="Path_61" data-name="Path 61" d="M42.678,133.339a5.339,5.339,0,1,0-5.339,5.339A5.339,5.339,0,0,0,42.678,133.339Zm-7.627,0a2.288,2.288,0,1,1,2.288,2.288,2.288,2.288,0,0,1-2.288-2.288Z" transform="translate(0 -59.39)" fill="#79939e" stroke="#79939e" stroke-width="0.5"/>
    </g>
    <g id="nmuuu" transform="translate(1297.916 627.01)">
      <g id="Group_64" data-name="Group 64" transform="translate(32.419)">
        <path id="Path_62" data-name="Path 62" d="M133.366,104.211a1.757,1.757,0,1,1,1.724-1.413A1.757,1.757,0,0,1,133.366,104.211Z" transform="translate(-114.176 -82.999)" fill="#79939e"/>
        <path id="Path_63" data-name="Path 63" d="M46.318,60.067a13.9,13.9,0,1,1,0-27.8h0a12.188,12.188,0,0,1,3.53.487V27.433a1.758,1.758,0,0,1,3.516,0V35.8a1.758,1.758,0,0,1-3.156,1.066c-.4-.527-1.9-1.086-3.891-1.086h0a10.384,10.384,0,1,0,0,20.769h0A10.384,10.384,0,0,0,56.7,46.166V16.252a1.758,1.758,0,0,1,2.658-1.51l9.63,5.739A20.034,20.034,0,0,0,55.33,4.792l-1.962-.627V11.54a1.758,1.758,0,1,1-3.516,0V1.758A1.758,1.758,0,0,1,52.145.084l4.261,1.361A23.487,23.487,0,0,1,72.764,23.227q.005.252.005.506a1.758,1.758,0,0,1-2.658,1.51l-9.9-5.9V46.162a13.9,13.9,0,0,1-13.9,13.9h0Z" transform="translate(-32.419)" fill="#79939e"/>
        <path id="Path_64" data-name="Path 64" d="M135.07,187.026a14.431,14.431,0,0,1,0-28.862h.006a12.772,12.772,0,0,1,3.817.542l-.006-30.884a1.758,1.758,0,0,1,1.41-1.723l41.326-8.345a1.758,1.758,0,0,1,2.106,1.723l.007,41.556a14.448,14.448,0,0,1-14.428,14.434h0a14.431,14.431,0,1,1,0-28.862,12.789,12.789,0,0,1,3.823.542v-8.17L149.5,144.055l.005,28.538a14.431,14.431,0,0,1-14.431,14.433Zm0-25.346h0a10.915,10.915,0,1,0,0,21.83h0a10.915,10.915,0,0,0,10.914-10.916l0-29.96a1.758,1.758,0,0,1,1.388-1.719l27.141-5.835a1.758,1.758,0,0,1,2.127,1.718v13.419a1.758,1.758,0,0,1-3.156,1.066c-.431-.565-2.043-1.165-4.183-1.165a10.916,10.916,0,1,0,0,21.831h0a10.928,10.928,0,0,0,10.913-10.918l-.007-39.408-37.8,7.637.006,32.518a1.758,1.758,0,0,1-3.155,1.066c-.428-.565-2.039-1.164-4.176-1.164Z" transform="translate(-105.132 -97.026)" fill="#79939e"/>
      </g>
    </g>
  </g>
</svg>
